# xmcd
#
# Track frame offsets: 
#        150
#        21740
#        48820
#        66252
#        83985
#        111325
#        126882
#        142197
#        163475
#        180500
#        202360
#        222937
#
# Disc length: 3231 seconds
#
# Revision: 0
# Processed by: cddbd v1.5.1PL0 Copyright (c) Steve Scherf et al.
# Submitted via: ExactAudioCopy v0.95a5
#
DISCID=c40c9d0c
DTITLE=BC And The Blues Crew - Unfinished Business
DYEAR=1998
DGENRE=Blues
TTITLE0=Let The Good Times Roll
TTITLE1=Chain Of Fools
TTITLE2=Hack's
TTITLE3=Call My Job
TTITLE4=Mellow Down Easy
TTITLE5=Down At Mike's
TTITLE6=You Must Think I'm Blind
TTITLE7=Tomorrow Morning
TTITLE8=Big Daddy
TTITLE9=You Can Leave Your Hat On
TTITLE10=Leslie Hammond
TTITLE11=Unfinished Business
EXTD=
EXTT0=
EXTT1=
EXTT2=
EXTT3=
EXTT4=
EXTT5=
EXTT6=
EXTT7=
EXTT8=
EXTT9=
EXTT10=
EXTT11=
PLAYORDER=
